<?xml version="1.0" encoding="utf-8"?>
<!-- Svg Vector Icons : http://www.onlinewebfonts.com/icon -->
<!DOCTYPE svg PUBLIC "-//W3C//DTD SVG 1.1//EN" "http://www.w3.org/Graphics/SVG/1.1/DTD/svg11.dtd">
<svg version="1.1" xmlns="http://www.w3.org/2000/svg" xmlns:xlink="http://www.w3.org/1999/xlink" x="0px" y="0px" viewBox="0 0 1000 1000" enable-background="new 0 0 1000 1000" xml:space="preserve">
<metadata> Svg Vector Icons : http://www.onlinewebfonts.com/icon </metadata>
<g><path d="M500,10C229.8,10,10,230.9,10,502.5C10,774,229.8,990,500,990c270.2,0,490-216,490-487.5C990,230.9,770.2,10,500,10z M500,939.6C257.2,939.6,60.4,742.8,60.4,500C60.4,257.2,257.2,60.4,500,60.4S939.6,257.2,939.6,500C939.6,742.8,742.8,939.6,500,939.6z"/><path d="M700.1,515.1H495.2V203.5c0-13.9-11.3-25.2-25.2-25.2c-13.9,0-25.2,11.3-25.2,25.2v333.2c-0.2,1.2-0.3,2.4-0.3,3.6c0,8.8,4.5,16.5,11.3,21c4,2.7,8.9,4.3,14.1,4.3c1,0,2-0.1,2.9-0.2h227.2c13.9,0,25.2-11.3,25.2-25.2C725.3,526.4,714,515.1,700.1,515.1z"/></g>
</svg>